# xmcd CD database file
#
# Track frame offsets:
#	150
#	16130
#	50272
#	73085
#	89967
#	106730
#	123002
#	142352
#	173345
#	186482
#	210162
#	234830
#
# Disc length: 3385 seconds
#
# Revision: 0
# Processed by: cddbd v1.5.1PL0 Copyright (c) Steve Scherf et al.
# Submitted via: CDex 1.51
#
DISCID=9d0d370c
DTITLE=The Robert Charles Blues Band - Deception In Your Eyes
DYEAR=1997
DGENRE=Blues
TTITLE0=I Wish You Could See Me Now
TTITLE1=Every Mother's Son
TTITLE2=All You Ever Give Me Is The Blues
TTITLE3=I'd Rather Drink Muddy Water
TTITLE4=Faith Healer
TTITLE5=Deep Red Days
TTITLE6=Babe and A Half
TTITLE7=Death Letter
TTITLE8=It Might Be Over
TTITLE9=Ain't Gonna Wait Around Anymore
TTITLE10=Kattskill Home (Long Drive)
TTITLE11=Until I'm Dead and Cold
EXTD=YEAR: 1997
EXTT0=
EXTT1=
EXTT2=
EXTT3=
EXTT4=
EXTT5=
EXTT6=
EXTT7=
EXTT8=
EXTT9=
EXTT10=
EXTT11=
PLAYORDER=
